<mxfile host="Electron" modified="2023-12-05T15:45:26.081Z" agent="Mozilla/5.0 (Windows NT 10.0; Win64; x64) AppleWebKit/537.36 (KHTML, like Gecko) draw.io/21.6.8 Chrome/114.0.5735.289 Electron/25.5.0 Safari/537.36" etag="AL8fq9v6L1CP4VbHtJtv" version="21.6.8" type="device">
  <diagram name="PÃ¡gina-1" id="cPSNi7r_4B1eX6Dvwcpm">
    <mxGraphModel dx="1668" dy="965" grid="1" gridSize="10" guides="1" tooltips="1" connect="1" arrows="1" fold="1" page="1" pageScale="1" pageWidth="850" pageHeight="1100" math="0" shadow="0">
      <root>
        <mxCell id="0" />
        <mxCell id="1" parent="0" />
        <mxCell id="Gzf2C3CRKQBkMYWGpn2m-2" style="edgeStyle=orthogonalEdgeStyle;rounded=0;orthogonalLoop=1;jettySize=auto;html=1;exitX=1;exitY=0.25;exitDx=0;exitDy=0;entryX=0.003;entryY=0.357;entryDx=0;entryDy=0;entryPerimeter=0;" parent="1" target="J08tAfY-yrUdoFLxVI3k-53" edge="1">
          <mxGeometry relative="1" as="geometry">
            <mxPoint x="569" y="1030" as="sourcePoint" />
            <mxPoint x="810" y="1030" as="targetPoint" />
            <Array as="points" />
          </mxGeometry>
        </mxCell>
        <mxCell id="Gzf2C3CRKQBkMYWGpn2m-6" style="edgeStyle=orthogonalEdgeStyle;rounded=0;orthogonalLoop=1;jettySize=auto;html=1;exitX=1;exitY=0.25;exitDx=0;exitDy=0;" parent="1" source="J08tAfY-yrUdoFLxVI3k-51" edge="1">
          <mxGeometry relative="1" as="geometry">
            <mxPoint x="570.1428571428571" y="1024.857142857143" as="targetPoint" />
          </mxGeometry>
        </mxCell>
        <mxCell id="Gzf2C3CRKQBkMYWGpn2m-7" style="edgeStyle=orthogonalEdgeStyle;rounded=0;orthogonalLoop=1;jettySize=auto;html=1;exitX=1;exitY=0.5;exitDx=0;exitDy=0;" parent="1" source="J08tAfY-yrUdoFLxVI3k-51" target="J08tAfY-yrUdoFLxVI3k-53" edge="1">
          <mxGeometry relative="1" as="geometry">
            <mxPoint x="800" y="1050" as="targetPoint" />
            <Array as="points">
              <mxPoint x="570" y="1050" />
            </Array>
          </mxGeometry>
        </mxCell>
        <mxCell id="Gzf2C3CRKQBkMYWGpn2m-9" style="edgeStyle=orthogonalEdgeStyle;rounded=0;orthogonalLoop=1;jettySize=auto;html=1;exitX=0.75;exitY=1;exitDx=0;exitDy=0;entryX=0.5;entryY=0;entryDx=0;entryDy=0;" parent="1" source="J08tAfY-yrUdoFLxVI3k-51" target="Gzf2C3CRKQBkMYWGpn2m-8" edge="1">
          <mxGeometry relative="1" as="geometry">
            <Array as="points">
              <mxPoint x="560" y="1070" />
              <mxPoint x="560" y="1155" />
              <mxPoint x="800" y="1155" />
            </Array>
          </mxGeometry>
        </mxCell>
        <mxCell id="Gzf2C3CRKQBkMYWGpn2m-11" style="edgeStyle=orthogonalEdgeStyle;rounded=0;orthogonalLoop=1;jettySize=auto;html=1;exitX=1;exitY=0.75;exitDx=0;exitDy=0;" parent="1" source="J08tAfY-yrUdoFLxVI3k-51" edge="1">
          <mxGeometry relative="1" as="geometry">
            <mxPoint x="570.1428571428571" y="1055.142857142857" as="targetPoint" />
          </mxGeometry>
        </mxCell>
        <mxCell id="Gzf2C3CRKQBkMYWGpn2m-12" style="edgeStyle=orthogonalEdgeStyle;rounded=0;orthogonalLoop=1;jettySize=auto;html=1;exitX=1;exitY=1;exitDx=0;exitDy=0;" parent="1" edge="1">
          <mxGeometry relative="1" as="geometry">
            <mxPoint x="821" y="1070" as="targetPoint" />
            <Array as="points">
              <mxPoint x="800" y="1071" />
            </Array>
            <mxPoint x="570" y="1071" as="sourcePoint" />
          </mxGeometry>
        </mxCell>
        <mxCell id="Gzf2C3CRKQBkMYWGpn2m-17" style="edgeStyle=orthogonalEdgeStyle;rounded=0;orthogonalLoop=1;jettySize=auto;html=1;exitX=0;exitY=1;exitDx=0;exitDy=0;entryX=0.5;entryY=0;entryDx=0;entryDy=0;" parent="1" edge="1" target="Gzf2C3CRKQBkMYWGpn2m-14" source="J08tAfY-yrUdoFLxVI3k-51">
          <mxGeometry relative="1" as="geometry">
            <mxPoint x="450" y="1130.0000000000002" as="sourcePoint" />
            <mxPoint x="260" y="1330.0000000000002" as="targetPoint" />
            <Array as="points">
              <mxPoint x="450" y="1130" />
              <mxPoint x="261" y="1130" />
              <mxPoint x="261" y="1240" />
            </Array>
          </mxGeometry>
        </mxCell>
        <mxCell id="Gzf2C3CRKQBkMYWGpn2m-23" style="edgeStyle=orthogonalEdgeStyle;rounded=0;orthogonalLoop=1;jettySize=auto;html=1;exitX=1;exitY=0;exitDx=0;exitDy=0;" parent="1" edge="1">
          <mxGeometry relative="1" as="geometry">
            <mxPoint x="820" y="1010" as="targetPoint" />
            <Array as="points">
              <mxPoint x="560" y="1010" />
            </Array>
            <mxPoint x="560" y="1044" as="sourcePoint" />
          </mxGeometry>
        </mxCell>
        <mxCell id="Gzf2C3CRKQBkMYWGpn2m-30" style="edgeStyle=orthogonalEdgeStyle;rounded=0;orthogonalLoop=1;jettySize=auto;html=1;exitX=0.5;exitY=0;exitDx=0;exitDy=0;endArrow=none;endFill=0;" parent="1" source="J08tAfY-yrUdoFLxVI3k-51" target="J08tAfY-yrUdoFLxVI3k-52" edge="1">
          <mxGeometry relative="1" as="geometry">
            <Array as="points">
              <mxPoint x="480" y="1010" />
            </Array>
          </mxGeometry>
        </mxCell>
        <mxCell id="jc5nJefehXrzplXcUPSE-4" style="edgeStyle=orthogonalEdgeStyle;rounded=0;orthogonalLoop=1;jettySize=auto;html=1;" edge="1" parent="1" source="J08tAfY-yrUdoFLxVI3k-51" target="J08tAfY-yrUdoFLxVI3k-56">
          <mxGeometry relative="1" as="geometry" />
        </mxCell>
        <mxCell id="jc5nJefehXrzplXcUPSE-5" value="6. projs := retrieve(prop.id) *" style="edgeLabel;html=1;align=center;verticalAlign=middle;resizable=0;points=[];" vertex="1" connectable="0" parent="jc5nJefehXrzplXcUPSE-4">
          <mxGeometry x="0.0839" relative="1" as="geometry">
            <mxPoint as="offset" />
          </mxGeometry>
        </mxCell>
        <mxCell id="jc5nJefehXrzplXcUPSE-7" style="edgeStyle=orthogonalEdgeStyle;rounded=0;orthogonalLoop=1;jettySize=auto;html=1;" edge="1" parent="1" source="J08tAfY-yrUdoFLxVI3k-51" target="Gzf2C3CRKQBkMYWGpn2m-20">
          <mxGeometry relative="1" as="geometry">
            <Array as="points">
              <mxPoint x="390" y="1060" />
              <mxPoint x="390" y="1060" />
            </Array>
          </mxGeometry>
        </mxCell>
        <mxCell id="jc5nJefehXrzplXcUPSE-10" style="edgeStyle=orthogonalEdgeStyle;rounded=0;orthogonalLoop=1;jettySize=auto;html=1;entryX=0.5;entryY=1;entryDx=0;entryDy=0;" edge="1" parent="1" source="J08tAfY-yrUdoFLxVI3k-51" target="jc5nJefehXrzplXcUPSE-8">
          <mxGeometry relative="1" as="geometry">
            <mxPoint x="145" y="980" as="targetPoint" />
            <Array as="points">
              <mxPoint x="145" y="1010" />
            </Array>
          </mxGeometry>
        </mxCell>
        <mxCell id="J08tAfY-yrUdoFLxVI3k-51" value=":FormularioManager" style="rounded=0;whiteSpace=wrap;html=1;" parent="1" vertex="1">
          <mxGeometry x="450" y="1010" width="120" height="60" as="geometry" />
        </mxCell>
        <mxCell id="J08tAfY-yrUdoFLxVI3k-52" value="answerForm(ownerId)" style="text;html=1;align=center;verticalAlign=middle;resizable=0;points=[];autosize=1;strokeColor=none;fillColor=none;" parent="1" vertex="1">
          <mxGeometry x="440" y="840" width="140" height="30" as="geometry" />
        </mxCell>
        <mxCell id="J08tAfY-yrUdoFLxVI3k-53" value=":DaoManager" style="rounded=0;whiteSpace=wrap;html=1;" parent="1" vertex="1">
          <mxGeometry x="820" y="1005" width="120" height="65" as="geometry" />
        </mxCell>
        <mxCell id="J08tAfY-yrUdoFLxVI3k-54" value="2. getPropriedadeDAO()" style="text;html=1;align=center;verticalAlign=middle;resizable=0;points=[];autosize=1;strokeColor=none;fillColor=none;" parent="1" vertex="1">
          <mxGeometry x="635" y="1008" width="150" height="30" as="geometry" />
        </mxCell>
        <mxCell id="J08tAfY-yrUdoFLxVI3k-56" value=":ProjetoDAO" style="rounded=0;whiteSpace=wrap;html=1;" parent="1" vertex="1">
          <mxGeometry x="450" y="1280" width="120" height="60" as="geometry" />
        </mxCell>
        <mxCell id="Gzf2C3CRKQBkMYWGpn2m-4" value="3. getProjetoDAO()" style="text;html=1;align=center;verticalAlign=middle;resizable=0;points=[];autosize=1;strokeColor=none;fillColor=none;" parent="1" vertex="1">
          <mxGeometry x="645" y="1027" width="130" height="30" as="geometry" />
        </mxCell>
        <mxCell id="Gzf2C3CRKQBkMYWGpn2m-8" value=":PropriedadeDAO" style="rounded=0;whiteSpace=wrap;html=1;" parent="1" vertex="1">
          <mxGeometry x="740" y="1240" width="120" height="60" as="geometry" />
        </mxCell>
        <mxCell id="Gzf2C3CRKQBkMYWGpn2m-10" value="5. props := retrieve(ownerId)" style="text;html=1;align=center;verticalAlign=middle;resizable=0;points=[];autosize=1;strokeColor=none;fillColor=none;" parent="1" vertex="1">
          <mxGeometry x="595" y="1130" width="170" height="30" as="geometry" />
        </mxCell>
        <mxCell id="Gzf2C3CRKQBkMYWGpn2m-13" value="4. getEtapaProjetoDAO()" style="text;html=1;align=center;verticalAlign=middle;resizable=0;points=[];autosize=1;strokeColor=none;fillColor=none;" parent="1" vertex="1">
          <mxGeometry x="633" y="1046" width="160" height="30" as="geometry" />
        </mxCell>
        <mxCell id="Gzf2C3CRKQBkMYWGpn2m-14" value=":EtapaProjetoDAO" style="rounded=0;whiteSpace=wrap;html=1;" parent="1" vertex="1">
          <mxGeometry x="200" y="1240" width="120" height="60" as="geometry" />
        </mxCell>
        <mxCell id="Gzf2C3CRKQBkMYWGpn2m-18" value="7. stages := retrieve(proj.id)&amp;nbsp;" style="text;html=1;align=center;verticalAlign=middle;resizable=0;points=[];autosize=1;strokeColor=none;fillColor=none;" parent="1" vertex="1">
          <mxGeometry x="270" y="1100" width="170" height="30" as="geometry" />
        </mxCell>
        <mxCell id="Gzf2C3CRKQBkMYWGpn2m-20" value=":CampoFormularioDAO" style="rounded=0;whiteSpace=wrap;html=1;" parent="1" vertex="1">
          <mxGeometry x="50" y="1031" width="150" height="60" as="geometry" />
        </mxCell>
        <mxCell id="Gzf2C3CRKQBkMYWGpn2m-24" value="1. getCampoFormularioDAO()" style="text;html=1;align=center;verticalAlign=middle;resizable=0;points=[];autosize=1;strokeColor=none;fillColor=none;" parent="1" vertex="1">
          <mxGeometry x="628" y="984" width="180" height="30" as="geometry" />
        </mxCell>
        <mxCell id="Gzf2C3CRKQBkMYWGpn2m-25" value="8. formFields := retrieve(stage.id) *" style="text;html=1;align=center;verticalAlign=middle;resizable=0;points=[];autosize=1;strokeColor=none;fillColor=none;" parent="1" vertex="1">
          <mxGeometry x="220" y="1025" width="210" height="30" as="geometry" />
        </mxCell>
        <mxCell id="Gzf2C3CRKQBkMYWGpn2m-33" style="edgeStyle=orthogonalEdgeStyle;rounded=0;orthogonalLoop=1;jettySize=auto;html=1;exitX=0.5;exitY=0;exitDx=0;exitDy=0;entryX=0.75;entryY=0;entryDx=0;entryDy=0;" parent="1" source="J08tAfY-yrUdoFLxVI3k-51" target="J08tAfY-yrUdoFLxVI3k-51" edge="1">
          <mxGeometry relative="1" as="geometry">
            <Array as="points">
              <mxPoint x="510" y="940" />
              <mxPoint x="540" y="940" />
            </Array>
          </mxGeometry>
        </mxCell>
        <mxCell id="Gzf2C3CRKQBkMYWGpn2m-34" value="10. sendForm(projectStageId)" style="text;html=1;align=center;verticalAlign=middle;resizable=0;points=[];autosize=1;strokeColor=none;fillColor=none;" parent="1" vertex="1">
          <mxGeometry x="490" y="910" width="180" height="30" as="geometry" />
        </mxCell>
        <mxCell id="jc5nJefehXrzplXcUPSE-8" value=":formField" style="rounded=0;whiteSpace=wrap;html=1;" vertex="1" parent="1">
          <mxGeometry x="70" y="910" width="150" height="60" as="geometry" />
        </mxCell>
        <mxCell id="jc5nJefehXrzplXcUPSE-9" value="9. setValue(newValue) *" style="text;html=1;align=center;verticalAlign=middle;resizable=0;points=[];autosize=1;strokeColor=none;fillColor=none;" vertex="1" parent="1">
          <mxGeometry x="235" y="978" width="150" height="30" as="geometry" />
        </mxCell>
      </root>
    </mxGraphModel>
  </diagram>
</mxfile>
